<svg xmlns="http://www.w3.org/2000/svg" viewBox="0 0 1080 798"><g><path d="M150.6 707.4c0 2.7.5 4.6 1.3 5.5s2.6 1.7 5.3 2.4v3.5l-44.7.1v-3.6q4.2-1 5.3-2.5c.8-1 1.2-2.8 1.2-5.3l-.3-120c0-2.7-.4-4.6-1.3-5.6s-2.6-1.8-5.2-2.3V576l44.6-.1v3.5q-3.9.8-5.2 2.3c-.9 1-1.3 2.9-1.3 5.6zM297.5 676l-.2-63.2q0-4-1.4-5.7c-1-1-2.8-1.9-5.5-2.4v-3.6h37.9v3.5q-3.9.8-5.2 2.4c-.9 1-1.3 3-1.3 5.7l.2 94.2c0 2.6.5 4.5 1.4 5.5s2.6 1.8 5.2 2.3v3.6l-42.6.1v-3.6a9.7 9.7 0 004-1.7 3 3 0 001.5-2.3 3.6 3.6 0 00-.5-1.6 7.4 7.4 0 00-1.3-1.7l-68.2-67 .2 66.7c0 2.5.5 4.4 1.4 5.4s2.8 1.9 5.4 2.4v3.6h-37.7v-3.5c2.6-.5 4.3-1.3 5.2-2.3s1.3-2.9 1.3-5.5l-.3-94.5q0-4-1.3-5.5t-5.3-2.3v-3.6l45.4-.1v3.4a12 12 0 00-3.7 1.8 2.8 2.8 0 00-1.2 2.2 2.9 2.9 0 00.4 1.4 10.7 10.7 0 001.8 2zM364.8 624.3c-2.7 0-4.5.4-5.4 1.3s-1.8 2.6-2.5 5.3h-3.5l-.1-36.5h3.6q.8 4 2.3 5.3c1 .8 2.9 1.2 5.5 1.2l96.8-.3c2.9 0 4.8-.4 5.8-1.3s1.9-2.6 2.5-5.2h3.5l.2 36.5h-3.6c-.6-2.6-1.4-4.3-2.4-5.2s-3-1.4-5.9-1.4l-34 .1.3 82.5c0 2.6.4 4.5 1.3 5.5s2.7 1.8 5.3 2.3v3.6l-41.7.1v-3.6q4-.8 5.3-2.3c.8-1 1.2-2.9 1.2-5.5l-.2-82.5zM540 600.4v3.6q-4 .8-5.4 2.4t-1.4 5.5l.3 82.4 72.4-.2q4.2 0 5.5-1.3t2.3-5.2h3.6v36.6h-3.5q-.8-4-2.4-5.3t-5.5-1.4l-107.1.3v-3.6q4-.8 5.3-2.4c1-1 1.4-2.9 1.4-5.4l-.3-94.5q0-3.8-1.4-5.4c-.9-1-2.7-1.9-5.4-2.4v-3.6zM680.1 705.9c0 2.5.5 4.3 1.4 5.4s2.8 1.8 5.4 2.4v3.6h-41.6v-3.5c2.6-.6 4.3-1.3 5.2-2.4s1.3-2.8 1.3-5.5l-.2-94.4c0-2.7-.5-4.5-1.4-5.5s-2.6-1.8-5.2-2.3V600l41.6-.1v3.6q-4 .8-5.4 2.4t-1.4 5.5zM824.6 599.6c3 0 4.8-.4 5.7-1.2s1.6-2.5 2.2-5h3.5l.2 36.4h-3.6q-.8-4-2.4-5.3t-5.5-1.3l-72.1.2V647H797q4.3 0 5.6-1.4t2.2-5.2l3.6-.2.1 33.5H805q-.8-3.9-2.3-5.2t-5.5-1.3l-44.4.1.1 38.4q0 3.9 1.5 5.5t5.3 2.3v3.6l-41.5.1v-3.6q4-.8 5.3-2.4c1-1 1.4-2.9 1.4-5.4l-.3-94.5q0-3.8-1.4-5.4c-.9-1-2.7-1.9-5.4-2.4v-3.6zM906.4 665.8l-36.3-49q-5.3-7.1-9.1-9.8a24.7 24.7 0 00-8.9-4v-3.5l54.3-.2v3.6a14 14 0 00-5.5 2.7 5 5 0 00-1.7 3.9 7.2 7.2 0 00.4 2.4 8.4 8.4 0 001.2 2.2l22.4 29.6 22.4-29.7a11 11 0 001.2-2.3 5.3 5.3 0 00.4-1.8 5.9 5.9 0 00-1.6-4.3 12.3 12.3 0 00-5.4-2.7v-3.6l47.7-.2v3.6a35.9 35.9 0 00-9.9 5.3 43 43 0 00-8.2 8.5l-35.1 48.3v40.3q0 4 1.4 5.5t5.2 2.3v3.6l-41.6.1V713c2.7-.5 4.5-1.3 5.4-2.4s1.4-2.9 1.4-5.4z"/><path fill="none" d="M0 0h1080v798H0z"/><path d="M623.1 74.2L267.1 257 550.9 200l94.4 184 108.3-55.6L623 74.2z"/><path d="M753.6 435.2L642.9 540.6 357.5 298.1z" fill="#ffad33"/></g></svg>