<svg xmlns="http://www.w3.org/2000/svg" viewBox="0 0 1610 420">
    <g>
        <path fill="none" d="M0 0h1610v420H0z" />
        <path fill="#fff" d="M267.6 96.3l-178 91.4 141.9-28.4 47.2 92 54.1-27.8-65.2-127.2z" />
        <path d="M277.5 329.6L134.8 208.3l198 68.5z" fill="#ffad33" />
        <path fill="#fff"
            d="M471.4 285q0 5.2 1.6 7t6.6 3v4.3l-55.8.2V295q5.2-1.2 6.6-3c1-1.4 1.5-3.6 1.5-6.8l-.4-150c0-3.4-.6-5.7-1.6-7s-3.3-2.2-6.6-2.9V121l55.8-.2v4.4q-4.8 1-6.5 2.9c-1 1.3-1.6 3.6-1.6 7zM655 245.9l-.2-79c0-3.4-.6-5.7-1.9-7s-3.5-2.5-6.8-3.1v-4.5l47.3-.2v4.5q-4.8 1-6.5 3c-1 1.4-1.6 3.8-1.6 7.2l.3 117.7q0 5 1.7 6.9t6.5 2.9v4.4l-53.3.2v-4.5a12.3 12.3 0 005-2 3.8 3.8 0 001.8-3 4.5 4.5 0 00-.6-2 8.8 8.8 0 00-1.6-2.1L560 201.5l.2 83.3q0 4.8 1.8 6.8c1.2 1.3 3.4 2.3 6.7 3v4.5l-47.1.1v-4.4c3.2-.7 5.4-1.7 6.5-3s1.6-3.6 1.6-6.9l-.3-118q0-5-1.7-6.8t-6.5-3v-4.4l56.8-.2v4.3a15.4 15.4 0 00-4.7 2.2 3.5 3.5 0 00-1.5 2.8 3.6 3.6 0 00.5 1.8 13.4 13.4 0 002.2 2.5zM739.1 181.2q-5 0-6.8 1.6c-1.2 1-2.2 3.3-3.1 6.7h-4.3l-.1-45.6h4.4c.7 3.3 1.7 5.5 3 6.5s3.5 1.6 6.9 1.6l121-.4q5.3 0 7.2-1.7c1.2-1 2.3-3.2 3-6.4h4.5l.1 45.6h-4.4c-.7-3.2-1.7-5.4-3-6.5s-3.8-1.8-7.4-1.8l-42.5.2.3 103c0 3.4.6 5.7 1.7 7s3.3 2.2 6.7 2.8v4.5l-52.2.2V294c3.4-.7 5.5-1.7 6.6-3s1.6-3.5 1.5-6.8L782 181zM958.1 151.3v4.5q-5 1-6.7 3c-1.1 1.4-1.7 3.6-1.7 6.8l.3 103.1 90.5-.2q5.3 0 7-1.6c1-1 2-3.3 2.8-6.6h4.5v45.8h-4.4c-.7-3.3-1.7-5.5-3-6.7s-3.6-1.7-6.8-1.7l-134 .4v-4.5c3.3-.7 5.6-1.7 6.7-3s1.7-3.6 1.7-6.8l-.3-118c0-3.2-.6-5.5-1.8-6.8s-3.4-2.3-6.7-3v-4.5zM1133.3 283.2q0 4.8 1.8 6.8t6.7 3v4.4l-52 .2V293c3.2-.7 5.3-1.6 6.5-3s1.6-3.5 1.6-6.8l-.3-118q0-5-1.7-6.9t-6.5-2.9V151l52-.1v4.4q-5 1-6.7 3c-1.2 1.4-1.8 3.6-1.8 6.8zM1314 150.3q5.4 0 7-1.5c1-1 2-3 2.7-6.3h4.5v45.7h-4.4c-.7-3.4-1.7-5.6-3-6.7s-3.5-1.6-6.8-1.6l-90.2.2.1 29.4 55.5-.1c3.5 0 5.8-.6 7-1.6s2-3.3 2.8-6.6l4.4-.2.2 41.9h-4.5c-.7-3.2-1.7-5.4-3-6.5s-3.5-1.7-6.8-1.6l-55.5.1.2 48q0 4.8 1.7 6.8c1.2 1.3 3.4 2.3 6.7 3v4.5l-52 .1V293c3.4-.7 5.6-1.7 6.8-3s1.7-3.6 1.7-6.8l-.4-118c0-3.3-.6-5.5-1.7-6.8s-3.4-2.4-6.8-3v-4.5zM1416 233l-45.3-61.1q-6.6-9-11.4-12.4a30.8 30.8 0 00-11-4.8v-4.5l67.9-.2v4.5a17.9 17.9 0 00-6.9 3.3 6.2 6.2 0 00-2.2 4.8 9.1 9.1 0 00.5 3.1 10.4 10.4 0 001.5 2.7l28 37 28.1-37.1a14 14 0 001.5-2.8 6.5 6.5 0 00.5-2.4 7.3 7.3 0 00-2.1-5.4 15.5 15.5 0 00-6.7-3.3v-4.5l59.5-.2v4.5a44.8 44.8 0 00-12.3 6.7 54 54 0 00-10.2 10.6l-44 60.4.2 50.3q0 5 1.6 6.9t6.5 2.9v4.5l-52 .1v-4.5q5-1 6.7-3c1.2-1.3 1.8-3.6 1.8-6.8z" />
    </g>
</svg>