<svg xmlns="http://www.w3.org/2000/svg" viewBox="0 0 1610 420">
   <g>
      <path fill="none" d="M0 0h1610v420H0z" />
      <path style="stroke-width:1.41967"
         d="m 98.745423,316.33451 q 0,7.38223 2.271447,9.93761 2.27146,2.55539 9.36977,4.25899 v 6.10455 l -79.217086,0.28392 v -6.38847 q 7.382244,-1.7036 9.369761,-4.25899 c 1.419667,-1.9875 2.129494,-5.11078 2.129494,-9.65369 L 42.100946,103.6693 c 0,-4.82685 -0.851792,-8.09206 -2.271457,-9.937624 -1.419666,-1.84556 -4.684888,-3.123254 -9.369763,-4.117018 v -6.10454 l 79.217104,-0.283933 v 6.246508 q -6.8144,1.419661 -9.22781,4.117016 c -1.419674,1.845561 -2.271465,5.110781 -2.271465,9.937621 z M 359.39517,260.82576 359.11123,148.67255 c 0,-4.82685 -0.85179,-8.09207 -2.69735,-9.93762 -1.84555,-1.84556 -4.96881,-3.54916 -9.65369,-4.40094 v -6.3885 l 67.14996,-0.28392 v 6.38847 q -6.81438,1.41966 -9.22779,4.25898 c -1.41967,1.98754 -2.27146,5.39471 -2.27146,10.22157 l 0.4259,167.09407 q 0,7.09831 2.41341,9.79567 2.41342,2.69735 9.2278,4.11702 v 6.24651 l -75.66793,0.28392 v -6.38845 a 17.461828,17.461828 0 0 0 7.09831,-2.83933 5.3947114,5.3947114 0 0 0 2.55538,-4.259 6.3884742,6.3884742 0 0 0 -0.85178,-2.8393 12.493015,12.493015 0 0 0 -2.27146,-2.98131 l -120.81314,-118.96758 0.28393,118.25778 q 0,6.81436 2.55538,9.65368 c 1.7036,1.84556 4.82686,3.26523 9.51174,4.25897 v 6.38849 l -66.86604,0.14195 v -6.24649 c 4.54292,-0.99377 7.66617,-2.41343 9.2278,-4.259 1.56162,-1.84555 2.27147,-5.11078 2.27147,-9.79566 l -0.42591,-167.51998 q 0,-7.0983 -2.41341,-9.65371 -2.41344,-2.55537 -9.22781,-4.25895 v -6.24653 l 80.63674,-0.28392 v 6.10455 a 21.862778,21.862778 0 0 0 -6.67241,3.12325 4.9688132,4.9688132 0 0 0 -2.12949,3.97505 5.1107794,5.1107794 0 0 0 0.70982,2.55538 19.023457,19.023457 0 0 0 3.12328,3.54915 z M 478.78864,168.9737 q -7.0983,0 -9.65369,2.27147 c -1.70358,1.41964 -3.12325,4.68485 -4.40095,9.51172 h -6.10452 l -0.14198,-64.73654 h 6.2465 c 0.99378,4.68488 2.41342,7.80813 4.25899,9.22779 1.84555,1.41966 4.96882,2.27146 9.79565,2.27146 l 171.77898,-0.56785 q 7.52419,0 10.22156,-2.41343 c 1.70359,-1.41966 3.26522,-4.54291 4.25897,-9.08582 h 6.38849 l 0.14197,64.73652 h -6.24652 c -0.99376,-4.54291 -2.41341,-7.66616 -4.25897,-9.2278 -1.84557,-1.56161 -5.39472,-2.55538 -10.5055,-2.55538 l -60.33559,0.28392 0.4259,146.22508 c 0,4.82686 0.85181,8.09207 2.41341,9.93762 1.56164,1.84557 4.68489,3.12327 9.51176,3.97505 v 6.38849 l -74.10632,0.28391 v -6.38846 c 4.82686,-0.99377 7.80814,-2.41342 9.36976,-4.25899 1.56162,-1.84555 2.27146,-4.96882 2.12949,-9.65369 L 539.6921,168.68976 Z m 310.90575,-42.44787 v 6.38848 q -7.09829,1.41968 -9.51173,4.25898 c -1.56162,1.98754 -2.41342,5.11078 -2.41342,9.6537 l 0.42591,146.36704 128.47929,-0.28392 q 7.52419,0 9.93767,-2.27146 c 1.41963,-1.41966 2.83925,-4.68488 3.97498,-9.36977 h 6.38846 v 65.02047 h -6.24645 c -0.99371,-4.68488 -2.41346,-7.80813 -4.25901,-9.51172 -1.84555,-1.70361 -5.11072,-2.41343 -9.65362,-2.41343 l -190.23462,0.56787 v -6.38849 c 4.6849,-0.99375 7.9501,-2.41342 9.51172,-4.25896 1.56163,-1.84557 2.41344,-5.11078 2.41344,-9.6537 L 728.0811,147.11093 c 0,-4.54291 -0.85179,-7.80814 -2.55539,-9.65369 -1.70359,-1.84557 -4.82684,-3.26523 -9.51171,-4.25899 v -6.38848 z M 1038.419,313.77911 q 0,6.81437 2.5554,9.65371 2.5553,2.8393 9.5116,4.25896 v 6.24652 l -73.82231,0.28392 v -6.53044 c 4.54295,-0.99375 7.52429,-2.27145 9.22787,-4.25896 1.70358,-1.98752 2.27143,-4.96882 2.27143,-9.65371 L 987.7371,146.25913 q 0,-7.0983 -2.41339,-9.79566 -2.4135,-2.69735 -9.22784,-4.11702 v -6.24652 l 73.82223,-0.14194 v 6.24649 q -7.0982,1.41967 -9.5117,4.25899 c -1.7035,1.98753 -2.5554,5.11078 -2.5554,9.65369 z m 256.5326,-188.67292 q 7.6662,0 9.9377,-2.12951 c 1.4197,-1.41965 2.8393,-4.25898 3.833,-8.94385 h 6.3885 v 64.8785 h -6.2465 c -0.9937,-4.82686 -2.4133,-7.95011 -4.259,-9.51172 -1.8454,-1.56163 -4.9687,-2.27148 -9.6537,-2.27148 l -128.0534,0.28395 0.142,41.73802 78.7913,-0.14196 c 4.9687,0 8.234,-0.85178 9.9376,-2.27145 1.7035,-1.41965 2.8392,-4.68488 3.9749,-9.36977 l 6.2466,-0.28391 0.284,59.48378 h -6.3886 c -0.9937,-4.54293 -2.4134,-7.66618 -4.259,-9.22779 -1.8455,-1.56164 -4.9688,-2.41344 -9.6537,-2.27148 l -78.7911,0.14198 0.2838,68.14371 q 0,6.81439 2.4136,9.6537 c 1.7037,1.84555 4.8267,3.26521 9.5117,4.25898 v 6.38847 l -73.8223,0.14196 v -6.10454 c 4.8268,-0.99375 7.9501,-2.41341 9.6535,-4.25896 1.7036,-1.84556 2.4137,-5.11079 2.4137,-9.65371 l -0.568,-167.51998 c 0,-4.68488 -0.8518,-7.80813 -2.4135,-9.65369 -1.5617,-1.84555 -4.8269,-3.40719 -9.6536,-4.25899 v -6.38846 z m 144.8057,117.40595 -64.3108,-86.74129 q -9.3698,-12.77693 -16.1841,-17.60379 a 43.725556,43.725556 0 0 0 -15.6164,-6.81437 v -6.38847 l 96.395,-0.28395 v 6.38849 a 25.41193,25.41193 0 0 0 -9.7954,4.6849 8.8018978,8.8018978 0 0 0 -3.1234,6.81436 12.918915,12.918915 0 0 0 0.7097,4.40094 14.764473,14.764473 0 0 0 2.1295,3.83309 l 39.7506,52.52745 39.8924,-52.66943 a 19.875253,19.875253 0 0 0 2.1295,-3.97505 9.2277959,9.2277959 0 0 0 0.7099,-3.40719 10.363524,10.363524 0 0 0 -2.9813,-7.66616 22.004745,22.004745 0 0 0 -9.5117,-4.68487 v -6.38848 l 84.4698,-0.28394 v 6.38849 a 63.600809,63.600809 0 0 0 -17.4619,9.51173 76.66169,76.66169 0 0 0 -14.4807,15.04839 l -62.4649,85.74751 0.2837,71.40896 q 0,7.09829 2.2718,9.79564 2.2714,2.69736 9.2277,4.11702 v 6.38849 l -73.8223,0.14197 v -6.38848 q 7.0982,-1.41967 9.5117,-4.259 c 1.7035,-1.84555 2.5553,-5.11078 2.5553,-9.65368 z" />
   </g>
</svg>