<svg xmlns="http://www.w3.org/2000/svg" viewBox="0 0 1610 420">
    <g>
        <path fill="none" d="M0 0h1610v420H0z" />
        <path style="stroke-width:1.41966" fill="#ffffff"
            d="m 98.745643,316.33416 q 0,7.38224 2.271457,9.93761 2.27147,2.55539 9.36976,4.25899 v 6.10454 l -79.217031,0.28393 v -6.38847 q 7.382233,-1.7036 9.369758,-4.25899 c 1.419659,-1.98751 2.129489,-5.11076 2.129489,-9.65367 L 42.101212,103.66911 c 0,-4.826852 -0.851796,-8.092071 -2.271457,-9.937628 C 38.410095,91.885925 35.144878,90.608231 30.46,89.61447 V 83.509932 L 109.67703,83.226 v 6.246503 q -6.81436,1.419659 -9.22779,4.117015 c -1.419668,1.845561 -2.271457,5.11077 -2.271457,9.937632 z M 359.3952,260.82546 359.11127,148.67232 c 0,-4.82684 -0.8518,-8.09207 -2.69735,-9.93763 -1.84554,-1.84555 -4.9688,-3.54915 -9.65369,-4.40095 v -6.38845 l 67.14992,-0.28393 v 6.38845 q -6.81435,1.41966 -9.22778,4.25898 c -1.41966,1.98753 -2.27146,5.39472 -2.27146,10.22156 l 0.4259,167.09397 q 0,7.09832 2.41343,9.79567 2.41343,2.69734 9.22778,4.117 v 6.24652 l -75.66787,0.28393 v -6.38849 a 17.461816,17.461816 0 0 0 7.09829,-2.83932 5.3947079,5.3947079 0 0 0 2.5554,-4.25896 6.3884699,6.3884699 0 0 0 -0.85181,-2.83932 12.493008,12.493008 0 0 0 -2.27146,-2.98129 l -120.81304,-118.9675 0.28393,118.25766 q 0,6.81438 2.55539,9.65368 c 1.70359,1.84556 4.82683,3.26523 9.51172,4.259 v 6.38849 l -66.86598,0.14197 v -6.24654 c 4.54291,-0.99376 7.66615,-2.41342 9.22778,-4.25897 1.56163,-1.84554 2.27146,-5.11077 2.27146,-9.79566 l -0.4259,-167.51987 q 0,-7.09831 -2.41343,-9.6537 -2.41342,-2.55539 -9.22778,-4.25898 v -6.24649 l 80.63669,-0.28394 v 6.10453 a 21.862764,21.862764 0 0 0 -6.6724,3.12326 4.9688099,4.9688099 0 0 0 -2.12949,3.97505 5.1107759,5.1107759 0 0 0 0.70983,2.5554 19.023443,19.023443 0 0 0 3.12324,3.54914 z m 119.39344,-91.85201 q -7.09833,0 -9.65372,2.27146 c -1.70359,1.41966 -3.12323,4.68487 -4.40092,9.51172 h -6.10456 l -0.14196,-64.73649 h 6.24652 c 0.99376,4.68487 2.4134,7.80812 4.25896,9.22779 1.84556,1.41966 4.96881,2.27145 9.79568,2.27145 l 171.77884,-0.56786 q 7.5242,0 10.22155,-2.41342 c 1.70359,-1.41967 3.26522,-4.54292 4.25898,-9.08582 h 6.38847 l 0.14197,64.73648 h -6.24651 c -0.99376,-4.54291 -2.41342,-7.66615 -4.25898,-9.22778 -1.84554,-1.56163 -5.3947,-2.55539 -10.50548,-2.55539 l -60.33554,0.28393 0.4259,146.22497 c 0,4.82686 0.85177,8.09208 2.4134,9.93764 1.56163,1.84554 4.68489,3.12323 9.51174,3.97503 v 6.38848 l -74.10626,0.28393 v -6.38848 c 4.82686,-0.99376 7.80812,-2.41342 9.36975,-4.25896 1.56163,-1.84556 2.27146,-4.96881 2.12949,-9.6537 l -0.28393,-146.50891 z m 310.90553,-42.44782 v 6.38845 q -7.09831,1.41966 -9.51173,4.25899 c -1.56163,1.98752 -2.41342,5.11077 -2.41342,9.65369 l 0.42589,146.36694 128.47923,-0.28393 q 7.5242,0 9.93764,-2.27144 c 1.41966,-1.41967 2.83932,-4.68489 3.97505,-9.36976 h 6.3884 V 346.289 h -6.24649 c -0.9937,-4.68489 -2.41336,-7.80812 -4.25898,-9.51173 -1.84552,-1.70359 -5.11075,-2.41342 -9.65366,-2.41342 l -190.23443,0.56787 v -6.38849 c 4.68488,-0.99377 7.9501,-2.41342 9.51173,-4.25897 1.56162,-1.84556 2.41342,-5.11077 2.41342,-9.6537 l -0.4259,-167.51987 c 0,-4.5429 -0.85179,-7.80813 -2.55539,-9.65369 -1.70359,-1.84556 -4.82684,-3.26522 -9.51172,-4.25898 v -6.38847 z m 248.72453,187.25313 q 0,6.8144 2.5554,9.65372 2.5554,2.8393 9.5116,4.25896 v 6.24652 l -73.82236,0.28393 v -6.53045 c 4.5429,-0.99377 7.52426,-2.27144 9.22785,-4.25896 1.7036,-1.98754 2.27146,-4.96882 2.27146,-9.65372 l -0.42596,-167.51988 q 0,-7.09829 -2.41336,-9.79565 -2.4135,-2.69735 -9.22785,-4.11702 v -6.24648 l 73.82232,-0.14196 v 6.24647 q -7.0983,1.41968 -9.5116,4.25899 c -1.7036,1.98753 -2.5554,5.11078 -2.5554,9.65369 z m 256.5325,-188.67279 q 7.6661,0 9.9376,-2.12949 c 1.4197,-1.41966 2.8393,-4.25898 3.8331,-8.94385 h 6.3885 v 64.87845 h -6.2465 c -0.9938,-4.82686 -2.4135,-7.95009 -4.259,-9.51172 -1.8456,-1.56162 -4.9688,-2.27145 -9.6537,-2.27145 l -128.0534,0.28393 0.1421,41.738 78.791,-0.14196 c 4.9688,0 8.234,-0.8518 9.9376,-2.27146 1.7036,-1.41966 2.8394,-4.68489 3.9751,-9.36975 l 6.2465,-0.28393 0.2839,59.48373 h -6.3884 c -0.9938,-4.5429 -2.4135,-7.66615 -4.259,-9.22778 -1.8456,-1.56162 -4.9688,-2.41343 -9.6537,-2.27146 l -78.7912,0.14196 0.2839,68.14369 q 0,6.81437 2.4136,9.6537 c 1.7036,1.84555 4.8268,3.2652 9.5116,4.25896 v 6.38848 l -73.8224,0.14197 v -6.10455 c 4.8269,-0.99377 7.9501,-2.4134 9.6537,-4.25896 1.7036,-1.84556 2.4136,-5.11078 2.4136,-9.65372 l -0.5679,-167.51988 c 0,-4.68487 -0.8518,-7.80812 -2.4135,-9.65368 -1.5615,-1.84555 -4.8269,-3.40718 -9.6537,-4.25899 v -6.38844 z m 144.8053,117.40587 -64.3107,-86.74121 q -9.3698,-12.77694 -16.1842,-17.60379 a 43.725526,43.725526 0 0 0 -15.6161,-6.81436 V 124.964 l 96.3949,-0.28393 v 6.38846 a 25.411915,25.411915 0 0 0 -9.7956,4.68487 8.8018917,8.8018917 0 0 0 -3.1232,6.8144 12.918906,12.918906 0 0 0 0.7097,4.40093 14.764463,14.764463 0 0 0 2.1296,3.83308 l 39.7505,52.52741 39.8922,-52.66938 a 19.875241,19.875241 0 0 0 2.1296,-3.97506 9.2277897,9.2277897 0 0 0 0.7097,-3.40716 10.363519,10.363519 0 0 0 -2.9812,-7.66618 22.004731,22.004731 0 0 0 -9.5118,-4.68487 v -6.38846 l 84.47,-0.28394 v 6.38848 a 63.600767,63.600767 0 0 0 -17.4619,9.51171 76.66164,76.66164 0 0 0 -14.4806,15.0484 l -62.4651,85.74747 0.2839,71.40888 q 0,7.09832 2.2714,9.79566 2.2715,2.69736 9.2279,4.117 v 6.38849 l -73.8221,0.14196 v -6.38849 q 7.0983,-1.41963 9.5116,-4.25896 c 1.7036,-1.84556 2.5554,-5.11078 2.5554,-9.6537 z" />
    </g>
</svg>