<svg xmlns="http://www.w3.org/2000/svg" viewBox="0 0 1610 420">
    <g>
        <path d="M0 0h1610v420H0z" fill="none" />
        <path
            d="m 315.4,285 q 0,5.2 1.6,7 1.6,1.8 6.6,3 v 4.3 l -55.8,0.2 V 295 q 5.2,-1.2 6.6,-3 c 1,-1.4 1.5,-3.6 1.5,-6.8 l -0.4,-150 c 0,-3.4 -0.6,-5.7 -1.6,-7 -1,-1.3 -3.3,-2.2 -6.6,-2.9 V 121 l 55.8,-0.2 v 4.4 q -4.8,1 -6.5,2.9 c -1,1.3 -1.6,3.6 -1.6,7 z m 183.6,-39.1 -0.2,-79 c 0,-3.4 -0.6,-5.7 -1.9,-7 -1.3,-1.3 -3.5,-2.5 -6.8,-3.1 v -4.5 l 47.3,-0.2 v 4.5 q -4.8,1 -6.5,3 c -1,1.4 -1.6,3.8 -1.6,7.2 l 0.3,117.7 q 0,5 1.7,6.9 1.7,1.9 6.5,2.9 v 4.4 l -53.3,0.2 v -4.5 a 12.3,12.3 0 0 0 5,-2 3.8,3.8 0 0 0 1.8,-3 4.5,4.5 0 0 0 -0.6,-2 8.8,8.8 0 0 0 -1.6,-2.1 l -85.1,-83.8 0.2,83.3 q 0,4.8 1.8,6.8 c 1.2,1.3 3.4,2.3 6.7,3 v 4.5 l -47.1,0.1 v -4.4 c 3.2,-0.7 5.4,-1.7 6.5,-3 1.1,-1.3 1.6,-3.6 1.6,-6.9 l -0.3,-118 q 0,-5 -1.7,-6.8 -1.7,-1.8 -6.5,-3 v -4.4 l 56.8,-0.2 v 4.3 a 15.4,15.4 0 0 0 -4.7,2.2 3.5,3.5 0 0 0 -1.5,2.8 3.6,3.6 0 0 0 0.5,1.8 13.4,13.4 0 0 0 2.2,2.5 z m 84.1,-64.7 q -5,0 -6.8,1.6 c -1.2,1 -2.2,3.3 -3.1,6.7 h -4.3 l -0.1,-45.6 h 4.4 c 0.7,3.3 1.7,5.5 3,6.5 1.3,1 3.5,1.6 6.9,1.6 l 121,-0.4 q 5.3,0 7.2,-1.7 c 1.2,-1 2.3,-3.2 3,-6.4 h 4.5 l 0.1,45.6 h -4.4 c -0.7,-3.2 -1.7,-5.4 -3,-6.5 -1.3,-1.1 -3.8,-1.8 -7.4,-1.8 l -42.5,0.2 0.3,103 c 0,3.4 0.6,5.7 1.7,7 1.1,1.3 3.3,2.2 6.7,2.8 v 4.5 l -52.2,0.2 V 294 c 3.4,-0.7 5.5,-1.7 6.6,-3 1.1,-1.3 1.6,-3.5 1.5,-6.8 L 626,181 Z m 219,-29.9 v 4.5 q -5,1 -6.7,3 c -1.1,1.4 -1.7,3.6 -1.7,6.8 l 0.3,103.1 90.5,-0.2 q 5.3,0 7,-1.6 c 1,-1 2,-3.3 2.8,-6.6 h 4.5 v 45.8 h -4.4 c -0.7,-3.3 -1.7,-5.5 -3,-6.7 -1.3,-1.2 -3.6,-1.7 -6.8,-1.7 l -134,0.4 v -4.5 c 3.3,-0.7 5.6,-1.7 6.7,-3 1.1,-1.3 1.7,-3.6 1.7,-6.8 l -0.3,-118 c 0,-3.2 -0.6,-5.5 -1.8,-6.8 -1.2,-1.3 -3.4,-2.3 -6.7,-3 v -4.5 z m 175.2,131.9 q 0,4.8 1.8,6.8 1.8,2 6.7,3 v 4.4 l -52,0.2 V 293 c 3.2,-0.7 5.3,-1.6 6.5,-3 1.2,-1.4 1.6,-3.5 1.6,-6.8 l -0.3,-118 q 0,-5 -1.7,-6.9 -1.7,-1.9 -6.5,-2.9 V 151 l 52,-0.1 v 4.4 q -5,1 -6.7,3 c -1.2,1.4 -1.8,3.6 -1.8,6.8 z M 1158,150.3 q 5.4,0 7,-1.5 c 1,-1 2,-3 2.7,-6.3 h 4.5 v 45.7 h -4.4 c -0.7,-3.4 -1.7,-5.6 -3,-6.7 -1.3,-1.1 -3.5,-1.6 -6.8,-1.6 l -90.2,0.2 0.1,29.4 55.5,-0.1 c 3.5,0 5.8,-0.6 7,-1.6 1.2,-1 2,-3.3 2.8,-6.6 l 4.4,-0.2 0.2,41.9 h -4.5 c -0.7,-3.2 -1.7,-5.4 -3,-6.5 -1.3,-1.1 -3.5,-1.7 -6.8,-1.6 l -55.5,0.1 0.2,48 q 0,4.8 1.7,6.8 c 1.2,1.3 3.4,2.3 6.7,3 v 4.5 l -52,0.1 V 293 c 3.4,-0.7 5.6,-1.7 6.8,-3 1.2,-1.3 1.7,-3.6 1.7,-6.8 l -0.4,-118 c 0,-3.3 -0.6,-5.5 -1.7,-6.8 -1.1,-1.3 -3.4,-2.4 -6.8,-3 v -4.5 z m 102,82.7 -45.3,-61.1 q -6.6,-9 -11.4,-12.4 a 30.8,30.8 0 0 0 -11,-4.8 v -4.5 l 67.9,-0.2 v 4.5 a 17.9,17.9 0 0 0 -6.9,3.3 6.2,6.2 0 0 0 -2.2,4.8 9.1,9.1 0 0 0 0.5,3.1 10.4,10.4 0 0 0 1.5,2.7 l 28,37 28.1,-37.1 a 14,14 0 0 0 1.5,-2.8 6.5,6.5 0 0 0 0.5,-2.4 7.3,7.3 0 0 0 -2.1,-5.4 15.5,15.5 0 0 0 -6.7,-3.3 v -4.5 l 59.5,-0.2 v 4.5 a 44.8,44.8 0 0 0 -12.3,6.7 54,54 0 0 0 -10.2,10.6 l -44,60.4 0.2,50.3 q 0,5 1.6,6.9 1.6,1.9 6.5,2.9 v 4.5 l -52,0.1 v -4.5 q 5,-1 6.7,-3 c 1.2,-1.3 1.8,-3.6 1.8,-6.8 z" />
    </g>
</svg>